<svg width="24" height="24" viewBox="0 0 24 24" fill="none" xmlns="http://www.w3.org/2000/svg">
<path d="M5.06107 21.0451L5.64886 20.2361L5.06107 21.0451ZM3.95491 19.9389L4.76393 19.3511L3.95491 19.9389ZM20.0451 19.9389L19.2361 19.3511L20.0451 19.9389ZM18.9389 21.0451L19.5267 21.8541L18.9389 21.0451ZM18.9389 4.95492L19.5267 4.1459L18.9389 4.95492ZM20.0451 6.06107L19.2361 6.64886V6.64886L20.0451 6.06107ZM5.06107 4.95492L5.64886 5.76393V5.76393L5.06107 4.95492ZM3.95491 6.06107L4.76393 6.64886H4.76393L3.95491 6.06107ZM19.2178 16.0616L19.0614 15.0739V15.0739L19.2178 16.0616ZM15.0616 20.2178L14.0739 20.0614V20.0614L15.0616 20.2178ZM9 13C8.44772 13 8 13.4477 8 14C8 14.5523 8.44772 15 9 15V14V13ZM15 15C15.5523 15 16 14.5523 16 14C16 13.4477 15.5523 13 15 13V14V15ZM14 5C14 5.55228 14.4477 6 15 6C15.5523 6 16 5.55228 16 5H15H14ZM16 2C16 1.44772 15.5523 1 15 1C14.4477 1 14 1.44772 14 2H15H16ZM8 5C8 5.55228 8.44772 6 9 6C9.55228 6 10 5.55228 10 5H9H8ZM10 2C10 1.44772 9.55228 1 9 1C8.44772 1 8 1.44772 8 2H9H10ZM20.9711 16L21.9705 16.0342V16.0342L20.9711 16ZM3.02893 10L2.02951 9.96576L3.02893 10ZM20.9711 10L21.9705 9.96576L20.9711 10ZM12 22V21C10.1029 21 8.76033 20.9986 7.72497 20.8865C6.70833 20.7763 6.10714 20.569 5.64886 20.2361L5.06107 21.0451L4.47329 21.8541C5.32933 22.4761 6.32274 22.7462 7.50955 22.8748C8.67764 23.0014 10.1474 23 12 23V22ZM3 13H2C2 14.8526 1.99863 16.3224 2.12518 17.4905C2.25376 18.6773 2.52395 19.6707 3.1459 20.5267L3.95491 19.9389L4.76393 19.3511C4.43097 18.8929 4.22369 18.2917 4.11355 17.275C4.00137 16.2397 4 14.8971 4 13H3ZM5.06107 21.0451L5.64886 20.2361C5.30928 19.9894 5.01065 19.6907 4.76393 19.3511L3.95491 19.9389L3.1459 20.5267C3.51598 21.0361 3.96392 21.484 4.47329 21.8541L5.06107 21.0451ZM20.0451 19.9389L19.2361 19.3511C18.9894 19.6907 18.6907 19.9893 18.3511 20.2361L18.9389 21.0451L19.5267 21.8541C20.0361 21.484 20.484 21.0361 20.8541 20.5267L20.0451 19.9389ZM18.9389 4.95492L18.3511 5.76393C18.6907 6.01065 18.9894 6.30928 19.2361 6.64886L20.0451 6.06107L20.8541 5.47329C20.484 4.96392 20.0361 4.51597 19.5267 4.1459L18.9389 4.95492ZM5.06107 4.95492L4.47329 4.1459C3.96392 4.51598 3.51598 4.96392 3.1459 5.47329L3.95491 6.06107L4.76393 6.64886C5.01065 6.30928 5.30928 6.01065 5.64886 5.76393L5.06107 4.95492ZM19.2178 16.0616L19.0614 15.0739C16.494 15.4805 14.4805 17.494 14.0739 20.0614L15.0616 20.2178L16.0492 20.3743C16.3203 18.6627 17.6627 17.3203 19.3743 17.0492L19.2178 16.0616ZM9 14V15H15V14V13H9V14ZM20.9711 16L20.9711 15C20.098 15 19.543 14.9976 19.0614 15.0739L19.2178 16.0616L19.3743 17.0492C19.6619 17.0037 20.0247 17 20.9711 17L20.9711 16ZM21 13H20C20 14.1745 19.9999 15.1422 19.9717 15.9658L20.9711 16L21.9705 16.0342C22.0001 15.1691 22 14.1634 22 13H21ZM20.9711 16L19.9717 15.9658C19.9082 17.8176 19.7005 18.7119 19.2361 19.3511L20.0451 19.9389L20.8541 20.5267C21.7042 19.3567 21.9062 17.9108 21.9705 16.0342L20.9711 16ZM15 21.9711L16 21.9711C16 21.0247 16.0037 20.6619 16.0492 20.3743L15.0616 20.2178L14.0739 20.0614C13.9976 20.543 14 21.098 14 21.9711L15 21.9711ZM12 22V23C13.1634 23 14.1691 23.0001 15.0342 22.9705L15 21.9711L14.9658 20.9717C14.1422 20.9999 13.1745 21 12 21V22ZM15 21.9711L15.0342 22.9705C16.9108 22.9062 18.3567 22.7042 19.5267 21.8541L18.9389 21.0451L18.3511 20.2361C17.7119 20.7005 16.8176 20.9082 14.9658 20.9717L15 21.9711ZM3 13H4C4 11.8255 4.00013 10.8578 4.02834 10.0342L3.02893 10L2.02951 9.96576C1.99987 10.8309 2 11.8366 2 13H3ZM3.02893 10L4.02834 10.0342C4.09179 8.1824 4.29953 7.28806 4.76393 6.64886L3.95491 6.06107L3.1459 5.47329C2.29583 6.6433 2.09381 8.08923 2.02951 9.96576L3.02893 10ZM3.02893 10V11H20.9711V10V9H3.02893V10ZM21 13H22C22 11.8366 22.0001 10.8309 21.9705 9.96576L20.9711 10L19.9717 10.0342C19.9999 10.8578 20 11.8255 20 13H21ZM20.9711 10L21.9705 9.96576C21.9062 8.08923 21.7042 6.6433 20.8541 5.47329L20.0451 6.06107L19.2361 6.64886C19.7005 7.28806 19.9082 8.1824 19.9717 10.0342L20.9711 10ZM15 5H16V4.02893H15H14V5H15ZM15 4.02893H16V2H15H14V4.02893H15ZM12 4V5C13.1745 5 14.1422 5.00013 14.9658 5.02834L15 4.02893L15.0342 3.02951C14.1691 2.99987 13.1634 3 12 3V4ZM15 4.02893L14.9658 5.02834C16.8176 5.09179 17.7119 5.29953 18.3511 5.76393L18.9389 4.95492L19.5267 4.1459C18.3567 3.29583 16.9108 3.09381 15.0342 3.02951L15 4.02893ZM9 5H10V4.02893H9H8V5H9ZM9 4.02893H10V2H9H8V4.02893H9ZM12 4V3C10.8366 3 9.83088 2.99987 8.96576 3.02951L9 4.02893L9.03424 5.02834C9.85782 5.00013 10.8255 5 12 5V4ZM9 4.02893L8.96576 3.02951C7.08923 3.09381 5.6433 3.29583 4.47329 4.1459L5.06107 4.95492L5.64886 5.76393C6.28806 5.29953 6.1824 5.09179 9.03424 5.02834L9 4.02893Z" fill="#94a3b8"/>
</svg>
